<?xml version="1.0" encoding="utf-8"?>
<svg id="Layer_1" enable-background="new 0 0 512 512" viewBox="0 0 693.549 636.875" xmlns="http://www.w3.org/2000/svg">
  <path d="M 671.092 194.666 C 652.578 189.153 630.417 204.1 627.174 222.354 C 627.174 222.354 598.121 364.468 598.121 364.468 C 587.446 355.403 571.229 355.035 558.392 362.14 L 474.206 409.062 C 456.099 417.392 440.017 430.625 434.207 449.124 C 434.207 449.124 425.288 475.218 425.288 475.218 C 415.424 471.298 402.991 474.729 397.315 483.059 L 370.56 521.038 C 363.804 530.593 366.911 543.458 377.452 549.583 L 500.692 621.007 C 504.475 623.213 508.664 624.193 512.853 624.193 C 520.421 624.193 527.718 620.885 532.041 614.637 L 558.798 576.658 C 564.203 569.185 563.392 558.649 556.771 552.033 L 622.985 486.489 L 672.578 434.177 C 683.524 422.661 689.875 407.592 690.01 392.891 L 691.226 221.007 C 691.497 208.388 683.524 197.974 671.092 194.666 Z M 545.96 569.185 L 519.204 607.163 C 517.043 610.227 512.447 611.207 509.069 609.247 L 385.829 537.822 C 382.451 535.862 381.371 531.696 383.533 528.511 L 410.288 490.533 C 412.451 487.348 417.045 486.489 420.423 488.449 L 543.663 559.874 C 547.041 561.834 548.123 566.244 545.96 569.185 Z M 674.741 392.891 C 674.605 404.284 669.605 416.046 660.957 425.112 L 611.499 477.302 L 544.338 543.824 L 438.801 482.692 C 445.964 463.457 450.018 436.995 471.639 426.581 C 471.639 426.581 566.365 374.147 566.365 374.147 C 587.175 362.998 600.013 384.682 588.391 399.996 C 586.095 403.304 583.121 405.877 579.608 407.837 L 523.393 439.078 C 514.88 443.856 522.853 455.739 531.365 450.961 C 531.365 450.961 587.58 419.72 587.58 419.72 C 600.148 413.227 606.498 400.364 608.796 387.99 C 608.796 387.99 642.039 224.927 642.039 224.927 C 642.579 222.11 643.795 219.414 645.417 217.086 C 653.929 203.978 675.821 204.1 675.686 221.007 C 675.957 221.007 674.741 392.891 674.741 392.891 Z M 294.616 483.059 C 289.076 474.974 277.049 471.421 267.319 474.851 L 258.402 449.001 C 253.401 434.544 242.591 422.048 228.538 414.575 L 133.811 362.63 C 120.838 355.524 104.758 355.892 94.081 365.081 C 91.649 358.832 64.759 210.593 58.812 210.225 C 42.191 185.356 -0.105 191.236 0.301 222.11 C 0.301 222.11 2.328 393.994 2.328 393.994 C 2.463 408.694 8.949 423.641 20.03 435.158 C 47.056 464.56 106.378 523.732 135.567 551.911 C 128.675 558.526 127.594 569.185 133.135 576.781 L 159.89 614.76 C 166.647 624.438 180.836 627.134 191.377 621.007 L 314.616 549.583 C 325.156 543.458 328.263 530.716 321.507 521.038 L 294.616 483.059 Z M 31.516 425.969 C 22.868 416.903 17.732 405.142 17.597 393.748 L 15.57 221.864 C 15.436 205.08 37.191 204.591 45.84 217.822 C 47.597 220.149 48.677 222.967 49.353 225.662 L 83.406 388.725 C 85.028 400.853 92.19 413.35 104.216 419.72 C 104.216 419.72 160.431 450.961 160.431 450.961 C 168.945 455.616 177.053 443.977 168.404 439.078 C 168.404 439.078 112.19 407.837 112.19 407.837 C 108.812 405.877 105.703 403.181 103.406 399.996 C 92.054 384.805 105.433 363.733 125.703 374.636 C 131.784 377.944 216.781 424.989 220.699 426.704 C 242.051 436.627 246.78 463.58 253.672 482.202 L 147.864 543.458 C 118.54 515.157 58.812 455.494 31.516 425.969 Z M 306.238 537.822 L 182.998 609.247 C 179.484 611.207 175.026 610.348 172.728 607.163 L 145.973 569.185 C 143.81 566.244 144.755 562.079 147.999 560.119 C 149.215 559.997 150.431 559.751 151.512 559.139 L 267.05 491.513 C 267.725 491.022 268.401 490.533 268.941 489.92 C 271.239 488.449 274.076 486.857 276.914 487.592 C 278.805 487.96 280.427 489.062 281.508 490.533 L 308.265 528.511 C 310.696 531.696 309.751 535.862 306.238 537.822 Z M 511.907 345.601 C 532.583 327.224 527.718 294.513 537.717 271.972 C 548.663 249.675 577.311 230.195 576.905 203.364 C 577.311 176.658 548.528 157.055 537.717 134.758 C 527.718 112.094 532.583 79.505 511.907 61.129 C 491.637 42.385 455.557 46.795 430.693 37.729 C 406.099 27.806 384.613 1.833 355.02 2.201 C 325.561 1.833 303.94 27.928 279.347 37.729 C 254.348 46.795 218.403 42.385 198.133 61.129 C 177.457 79.505 182.322 112.216 172.323 134.758 C 161.377 157.055 132.729 176.535 133.135 203.364 C 132.729 230.072 161.377 249.675 172.323 271.972 C 182.322 294.636 177.457 327.224 197.998 345.601 C 218.267 364.345 254.348 359.935 279.212 369.001 C 303.806 378.924 325.291 404.897 354.885 404.529 C 384.344 404.897 405.965 378.924 430.558 369.001 C 455.557 359.812 491.637 364.222 511.907 345.601 Z M 355.02 390.563 C 330.29 390.318 308.535 364.345 285.292 356.015 C 262.59 346.826 226.511 350.87 209.078 335.677 C 192.322 319.75 196.782 287.163 186.647 266.58 C 177.457 245.508 148.809 225.784 148.54 203.364 C 148.809 180.946 177.457 161.22 186.647 140.148 C 196.782 119.567 192.322 86.857 209.078 71.052 C 226.646 55.86 262.59 59.904 285.292 50.715 C 308.535 42.385 330.29 16.412 355.02 16.167 C 379.748 16.412 401.505 42.385 424.748 50.715 C 447.449 59.904 483.53 55.86 500.961 71.052 C 517.718 86.978 513.258 119.567 523.393 140.148 C 532.583 161.22 561.23 180.946 561.5 203.364 C 561.23 225.784 532.583 245.508 523.393 266.58 C 513.258 287.163 517.718 319.873 500.961 335.677 C 483.394 350.87 447.449 346.826 424.748 356.015 C 401.505 364.345 379.748 390.318 355.02 390.563 Z M 355.02 73.012 C 164.485 80.117 164.485 326.367 355.02 333.472 C 434.207 333.472 498.665 275.034 498.665 203.243 C 498.665 131.45 434.207 73.012 355.02 73.012 Z M 355.02 319.629 C 284.346 319.629 226.78 267.439 226.78 203.364 C 233.807 49.123 476.368 49.123 483.394 203.364 C 483.259 267.439 425.693 319.629 355.02 319.629 Z M 398.262 147.009 L 330.832 208.143 L 303.264 183.272 C 293.129 174.085 275.427 174.085 265.292 183.272 C 254.753 192.829 254.753 208.265 265.292 217.698 L 311.778 259.842 C 321.778 269.276 339.749 269.276 349.75 259.842 C 349.75 259.842 436.234 181.435 436.234 181.435 C 460.693 158.035 424.208 125.448 398.262 147.009 Z M 425.423 171.634 L 338.94 250.041 C 334.615 253.962 327.047 253.962 322.589 250.041 L 276.103 207.897 C 265.563 197.974 281.508 183.519 292.454 193.074 C 292.454 193.074 330.832 227.867 330.832 227.867 L 409.208 156.81 C 420.018 147.622 435.963 161.711 425.423 171.634 Z" style=""/>
</svg>